<?xml version="1.0" encoding="UTF-8"?>
<svg id="Layer_2" data-name="Layer 2" xmlns="http://www.w3.org/2000/svg" xmlns:xlink="http://www.w3.org/1999/xlink" viewBox="0 0 475.5 253.5">
  <defs>
    <style>
      .cls-1 {
        letter-spacing: -.04em;
      }

      .cls-2 {
        font-family: MyriadPro-Regular, 'Myriad Pro';
        font-size: 12px;
      }

      .cls-2, .cls-3 {
        fill: #f3e0d1;
      }

      .cls-4 {
        fill: #741c28;
      }

      .cls-5 {
        fill: none;
        stroke: #f3e0d1;
        stroke-miterlimit: 10;
        stroke-width: 20px;
      }

      .cls-6 {
        letter-spacing: -.01em;
      }
    </style>
    <symbol id="New_Symbol" data-name="New Symbol" viewBox="0 0 1945.74 1672.23">
      <g>
        <g>
          <path class="cls-3" d="M141.1,1626.66l-13.69-186.71c-3.01,31.43-8.55,60.76-16.64,87.97-8.09,27.21-17.28,48.25-27.56,63.1-10.29,14.85-20.8,25.28-31.55,31.29s-21.38,9.01-31.89,9.01c-6.36,0-11.24-1.3-14.65-3.9-3.41-2.6-5.11-5.75-5.11-9.45,0-3.12,1.24-5.83,3.73-8.15,2.48-2.31,5.63-3.47,9.45-3.47,2.77,0,6.76.61,11.96,1.82,4.74,1.21,8.67,1.82,11.79,1.82,5.43,0,11.09-2.02,16.99-6.06,8.9-6,17.71-16.77,26.43-32.3,8.72-15.53,16.52-37.17,23.4-64.94,6.87-27.77,11.18-54.87,12.91-81.31-26.23,0-47.55,6.53-63.96,19.59-13.06,10.4-19.59,22.01-19.59,34.84,0,5.66,3.08,12.48,9.25,20.45,3.31,4.28,4.97,7.74,4.97,10.4,0,3.01-.95,5.49-2.84,7.45-1.9,1.97-4.16,2.95-6.8,2.95-4.48,0-8.44-2.54-11.89-7.63-4.71-6.82-7.06-14.91-7.06-24.27,0-13.17,4.42-25.8,13.26-37.88,8.84-12.07,21.09-21.26,36.75-27.56,15.66-6.3,34-9.5,55.04-9.62,11.32,0,20.39-1.04,27.21-3.12-.37,10.4-.53,16.01-.48,16.81-.05,1.05.1,3.42.46,7.11l10.06,132.01c27.95-48.76,55.27-88.89,81.95-120.4,18.94-22.3,35.44-37.38,49.5-45.24-8.02,21.96-16.62,50.91-25.8,86.84l-21.27,83.2c-1.16,4.62-2.73,11.38-4.71,20.28l-4.18,18.55c8.79,2.08,16.82,3.12,24.11,3.12,5.9,0,12.2-.69,18.9-2.08l-2.25,10.05c-5.9,1.04-10.47,1.56-13.7,1.56-4.74,0-11.56-.52-20.46-1.56-7.29-.93-13.76-1.39-19.43-1.39-6.01,0-12.84,1.15-20.46,3.47,6.37-16.64,13.03-39,19.98-67.08l13.38-53.04c5.67-22.88,10.6-38.59,14.77-47.15-9.27,10.53-23.59,29.85-42.95,57.96-15.54,22.67-32.92,51.37-52.16,86.07l-15.13,26.55Z"/>
          <path class="cls-3" d="M424.16,1470.46l11.44-2.43-13,43.86c-5.2,17.45-10.11,37.56-14.73,60.32-2.54,12.37-3.81,20.34-3.81,23.92s1.44,5.37,4.33,5.37c1.85,0,4.79-1.21,8.84-3.64,7.16-4.27,14.04-9.59,20.63-15.95l5.55,6.76c-13.17,12.02-21.61,19.3-25.31,21.84-7.4,5.09-14.45,8.84-21.15,11.27-4.39,1.62-8.67,2.43-12.83,2.43-3.01,0-5.26-.69-6.76-2.08-1.5-1.39-2.25-3.41-2.25-6.07,0-1.73.46-4.1,1.39-7.11l6.93-23.57c-9.94,11.9-21.78,22.13-35.53,30.68-8.44,5.31-16.18,7.97-23.23,7.97s-11.85-2.37-15.43-7.11c-4.85-6.35-7.28-14.67-7.28-24.96,0-12.25,3.26-25.88,9.79-40.91,6.53-15.02,15.28-28.66,26.26-40.91,10.98-12.25,22.53-21.26,34.67-27.04,9.36-4.39,21.38-6.59,36.05-6.59,3.7,0,7.45.23,11.27.69l4.16-6.76ZM402.67,1496.98c-6.24-1.27-11.5-1.91-15.77-1.91-10.4,0-19.47,2.86-27.21,8.58-7.74,5.72-14.94,16.01-21.58,30.85-6.65,14.85-9.97,29.67-9.97,44.46,0,7.86,1.33,13.52,3.99,16.99,2.66,3.47,6.12,5.2,10.4,5.2,7.97,0,16.52-4.3,25.65-12.91,9.13-8.61,15.83-21,20.11-37.18l14.39-54.08Z"/>
          <path class="cls-3" d="M460.56,1513.62l-7.63-5.89c11.54-12.71,22.07-21.75,31.6-27.13,9.52-5.37,17.63-8.06,24.32-8.06,3.69,0,6.52.81,8.48,2.43,1.96,1.62,2.94,3.81,2.94,6.59,0,3.35-3.75,17.57-11.24,42.64-12.21,41.02-18.32,65.76-18.32,74.19,0,1.62.4,2.98,1.21,4.07.81,1.1,1.67,1.65,2.6,1.65,3.7,0,13.17-7.16,28.43-21.49l6.76,6.59c-15.83,14.91-27.39,24.44-34.67,28.6s-13.23,6.24-17.85,6.24c-4.05,0-7.25-1.27-9.62-3.81-2.37-2.54-3.55-6.07-3.55-10.57,0-14.44,8.67-49.75,26-105.91.81-2.66,1.21-5.03,1.21-7.11,0-2.31-1.04-3.47-3.12-3.47-2.31,0-4.94.93-7.89,2.77-2.95,1.85-9.51,7.74-19.67,17.68ZM528.69,1398.87c3.58,0,6.53,1.19,8.84,3.55,2.31,2.37,3.47,5.4,3.47,9.1,0,5.09-1.76,9.56-5.29,13.43-3.53,3.87-7.48,5.81-11.87,5.81-3.47,0-6.36-1.21-8.67-3.64-2.31-2.43-3.47-5.6-3.47-9.53,0-5.2,1.67-9.62,5.03-13.26,3.35-3.64,7.34-5.46,11.96-5.46Z"/>
          <path class="cls-3" d="M616.22,1473.41c10.28,0,18.23,1.99,23.83,5.98,5.6,3.99,8.41,8.58,8.41,13.78,0,3.12-1.19,5.84-3.55,8.15-2.37,2.31-5.23,3.47-8.58,3.47-2.2,0-4.1-.49-5.72-1.47-1.62-.98-3.93-3.44-6.93-7.37-5.66-7.51-11.27-11.27-16.81-11.27-4.74,0-8.93,1.82-12.57,5.46-3.64,3.63-5.46,8.17-5.46,13.59,0,4.73,1.15,9.32,3.47,13.76,2.31,4.44,8.15,11.63,17.51,21.55,12.83,13.62,19.24,26.55,19.24,38.78s-5.2,22.94-15.6,32.12c-10.4,9.18-23.81,13.76-40.21,13.76-13.75,0-23.98-2.8-30.68-8.41-6.7-5.6-10.05-12.51-10.05-20.71,0-4.04,1.27-7.39,3.81-10.05,2.54-2.66,5.66-3.99,9.36-3.99,3.23,0,6.01,1.07,8.32,3.21,2.31,2.14,3.47,4.65,3.47,7.54,0,1.16-.08,2.66-.23,4.51-.08,1.5-.12,2.77-.12,3.81,0,3.81,1.61,7.05,4.84,9.71,3.11,2.66,7.37,3.99,12.78,3.99,6.22,0,11.69-1.07,16.41-3.2,4.72-2.13,8.41-5.37,11.06-9.7,2.65-4.33,3.97-8.63,3.97-12.9s-1.24-8.31-3.73-12.46c-2.49-4.15-8.06-11.02-16.73-20.6-12.02-13.39-18.03-26.26-18.03-38.61,0-11.31,4.56-21.21,13.69-29.69,9.13-8.48,20.74-12.72,34.84-12.72Z"/>
          <path class="cls-3" d="M739.64,1473.41c11.32,0,20.74,4.51,28.25,13.52,7.51,9.01,11.27,21.55,11.27,37.61,0,25.65-9.01,48.68-27.04,69.08-18.03,20.4-37.09,30.59-57.2,30.59-12.37,0-22.33-4.05-29.9-12.13-7.57-8.09-11.35-19.12-11.35-33.11,0-24.27,6.93-46.69,20.8-67.26,17.45-25.54,39.17-38.31,65.18-38.31ZM724.91,1486.41c-9.82,0-19.33,7.02-28.51,21.06-9.19,14.04-13.78,33.43-13.78,58.16,0,15.02,2.83,26.87,8.49,35.54,4.16,6.36,9.71,9.53,16.64,9.53,9.71,0,18.55-6.01,26.52-18.03,10.17-15.6,15.25-34.95,15.25-58.07,0-17.33-2.34-29.7-7.02-37.09-4.68-7.39-10.55-11.09-17.59-11.09Z"/>
          <path class="cls-3" d="M800.83,1514.14l-5.89-6.07c14.8-14.17,26.6-23.57,35.39-28.22,8.79-4.64,16.31-6.97,22.55-6.97,2.43,0,4.34.52,5.72,1.56,1.39,1.04,2.08,2.25,2.08,3.64,0,1.04-.29,2.89-.87,5.55l-7.81,34.88c11.77-13.07,26.53-25.27,44.3-36.61,9.46-5.9,17.25-8.85,23.36-8.85,4.5,0,8.02,1.45,10.56,4.33,2.54,2.89,3.81,7.05,3.81,12.48,0,3.58-.52,7.63-1.55,12.13-1.84,7.51-6.68,23.86-14.51,49.05-7.37,23.57-11.05,39.24-11.05,46.98,0,2.37.35,4.15,1.04,5.33.69,1.19,1.67,1.78,2.95,1.78,3.35,0,8.61-3.23,15.77-9.71,5.08-4.62,10.17-8.9,15.25-12.83l4.33,6.24c-10.63,11.73-21.67,21.16-33.11,28.29-7.28,4.6-13.29,6.9-18.03,6.9-4.39,0-7.8-1.59-10.23-4.77s-3.64-8.35-3.64-15.51c0-10.28,6.41-35.88,19.24-76.79,3.93-14.56,5.89-23.05,5.89-25.48,0-3.58-2.14-5.37-6.41-5.37-4.62,0-10.57,2.43-17.85,7.29-10.86,7.17-19.93,15.62-27.21,25.34-4.62,6.25-8.49,16.2-11.61,29.86l-14.04,60.58h-25.83c4.85-17.36,9.07-33.96,12.65-49.82l15.43-65.96c.58-2.66.87-4.57.87-5.73,0-3.12-1.16-4.69-3.47-4.69-1.85,0-4.51,1.22-7.97,3.67-7.17,4.78-13.87,10.6-20.11,17.48Z"/>
          <path class="cls-3" d="M1134.74,1520.03l-23.3,92.04c5.53.81,9.97,1.21,13.31,1.21,5.07,0,11.35-.87,18.85-2.6l-1.73,8.49c-7.74,1.62-13.74,2.43-18.01,2.43-4.5,0-11.14-.41-19.92-1.21-7.74-.81-14.14-1.21-19.22-1.21-9.24,0-19.92,1.33-32.04,3.99l2.6-9.71c12.7-3.23,20.96-6.41,24.77-9.53,5.77-4.97,10.22-13.69,13.34-26.17l24.23-96.9c3-12.36,4.5-19.64,4.5-21.84,0-2.08-.72-3.64-2.16-4.68-1.44-1.04-4.3-1.5-8.57-1.39l2.25-8.32c11.63-.11,25.56-2.25,41.8-6.4-1.39,4.39-3.18,10.86-5.38,19.41l-13.02,51.12c5.55,1.16,10.23,1.73,14.05,1.73,14.46,0,26.83-5.05,37.12-15.17,10.29-10.11,15.44-22.1,15.44-35.97,0-10.75-4.13-19.59-12.38-26.52-8.25-6.93-19.48-10.4-33.67-10.4-18.12,0-35.84,4.39-53.16,13.17-17.32,8.78-30.3,19.67-38.96,32.67-8.66,13-12.98,26.61-12.98,40.82,0,10.75,4.45,19.99,13.35,27.73,4.51,3.81,7.28,6.59,8.32,8.32,1.04,1.73,1.56,3.58,1.56,5.55,0,2.43-.9,4.54-2.7,6.33-1.8,1.79-3.98,2.69-6.53,2.69-6.27,0-11.85-3.64-16.72-10.92-6.27-9.47-9.41-21.15-9.41-35.01,0-17.79,4.91-34.38,14.73-49.75,9.82-15.37,24.7-28.08,44.63-38.13,19.93-10.05,40.94-15.08,63.01-15.08,20.57,0,37.5,3.87,50.79,11.61,13.29,7.74,19.93,19.18,19.93,34.32,0,14.21-6.09,27.45-18.27,39.7-12.18,12.25-28.94,20.11-50.29,23.57,5.31,10.63,8.71,17.8,10.21,21.49,2.42,6.24,6.12,16.76,11.08,31.55,11.67,34.65,23.73,59.05,36.21,73.21,9.24,10.36,19.23,15.54,29.97,15.54s18.19-5,21.31-14.99c1.85-6.32,3.58-10.22,5.2-11.72,2.19-2.07,4.68-3.1,7.45-3.1s5.11.98,7.01,2.95c1.91,1.96,2.86,4.33,2.86,7.11,0,7.16-3.93,13.98-11.79,20.45-7.85,6.47-17.96,9.71-30.32,9.71-11.21,0-21.92-2.71-32.14-8.13-10.22-5.42-20.16-14.3-29.8-26.64-9.64-12.34-18.05-27.15-25.21-44.45-3.57-8.67-8.82-24.55-15.74-47.67-4.15-14.1-6.75-22.53-7.78-25.31l-4.27-.35c-1.02,0-2.5.12-4.43.35Z"/>
          <path class="cls-3" d="M1340.78,1575.68l5.72,7.63c-28.31,26.93-52.58,40.39-72.8,40.39-8.21,0-14.47-2.77-18.81-8.32-4.33-5.55-6.5-14.44-6.5-26.69,0-24.73,7.51-49.34,22.53-73.84,16.87-27.85,37.04-41.77,60.5-41.77,8.2,0,14.47,2.05,18.81,6.15,4.33,4.1,6.5,9.74,6.5,16.9s-2.6,14.91-7.8,22.19c-5.2,7.28-14.5,14.85-27.91,22.71-6.7,3.81-21.03,10.69-42.99,20.63-1.04,6.24-1.56,12.19-1.56,17.85,0,8.21,1.3,13.93,3.9,17.16,2.6,3.24,6.38,4.85,11.35,4.85s9.94-1.33,15.6-3.99c7.63-3.58,18.78-10.86,33.45-21.84ZM1280.11,1550.54c18.6-8.32,32.59-17.27,41.95-26.87,6.35-6.7,9.53-13.35,9.53-19.93,0-4.97-1.3-8.93-3.9-11.87-2.6-2.95-5.98-4.42-10.14-4.42s-8.44,1.62-12.48,4.85c-5.43,4.28-10,10.75-13.69,19.41-5.32,12.71-9.07,25.65-11.27,38.83Z"/>
          <path class="cls-3" d="M1450.51,1489.87c-8.9,14.21-15.05,26.75-18.46,37.61-3.41,10.86-5.11,21.67-5.11,32.42,0,9.94,2.19,25.48,6.59,46.63,25.54-19.41,43.62-37.58,54.25-54.51,10.63-16.93,15.95-31.52,15.95-43.77,0-3.58-1.33-8.09-3.99-13.52-2.89-5.78-4.33-10.05-4.33-12.83,0-3,1.04-5.63,3.12-7.89,2.08-2.25,4.56-3.38,7.45-3.38,3.81,0,6.88,1.65,9.19,4.94,2.31,3.29,3.47,8.87,3.47,16.73,0,24.61-8.73,48.59-26.17,71.94-21.38,28.66-48.48,50.73-81.3,66.22-.81-5.43-2.43-14.1-4.85-26-4.74-23.92-7.11-40.56-7.11-49.92,0-12.36,2.89-24.35,8.67-35.97,5.78-11.61,14.33-21.69,25.65-30.25-20.34.35-34.9,2.6-43.68,6.76-6.24,3.01-9.36,6.53-9.36,10.57,0,1.62.81,4.33,2.43,8.15,1.04,2.66,1.56,4.91,1.56,6.76s-.78,3.5-2.34,4.94c-1.56,1.45-3.5,2.17-5.81,2.17-3.01,0-5.55-1.27-7.63-3.81-2.08-2.54-3.12-5.95-3.12-10.23,0-6.82,2.25-12.97,6.76-18.46,4.51-5.49,12.31-9.79,23.4-12.91s25.77-4.56,44.03-4.33c7.39-3.23,12.07-4.85,14.04-4.85,1.85,0,3.52.75,5.03,2.25,1.5,1.5,2.25,3.12,2.25,4.85,0,3.58-3.53,6.82-10.57,9.71Z"/>
          <path class="cls-3" d="M1617.61,1575.68l5.72,7.63c-28.31,26.93-52.58,40.39-72.8,40.39-8.21,0-14.47-2.77-18.81-8.32-4.33-5.55-6.5-14.44-6.5-26.69,0-24.73,7.51-49.34,22.53-73.84,16.87-27.85,37.04-41.77,60.5-41.77,8.2,0,14.47,2.05,18.81,6.15,4.33,4.1,6.5,9.74,6.5,16.9s-2.6,14.91-7.8,22.19-14.5,14.85-27.91,22.71c-6.7,3.81-21.03,10.69-42.99,20.63-1.04,6.24-1.56,12.19-1.56,17.85,0,8.21,1.3,13.93,3.9,17.16,2.6,3.24,6.38,4.85,11.35,4.85s9.94-1.33,15.6-3.99c7.63-3.58,18.78-10.86,33.45-21.84ZM1556.94,1550.54c18.6-8.32,32.59-17.27,41.95-26.87,6.35-6.7,9.53-13.35,9.53-19.93,0-4.97-1.3-8.93-3.9-11.87-2.6-2.95-5.98-4.42-10.14-4.42s-8.44,1.62-12.48,4.85c-5.43,4.28-10,10.75-13.69,19.41-5.32,12.71-9.07,25.65-11.27,38.83Z"/>
          <path class="cls-3" d="M1679.49,1619.18h-25.83l12.13-46.63c5.89-22.88,11.03-44.6,15.43-65.18,1.04-5.08,1.56-8.26,1.56-9.53,0-2.77-1.27-4.16-3.81-4.16-1.73,0-4.39,1.19-7.97,3.55-3.58,2.37-10.05,8.23-19.41,17.59l-5.37-6.07c11.09-11.9,22.15-20.83,33.18-26.78,11.03-5.95,19.49-8.93,25.39-8.93,2.08,0,3.72.49,4.94,1.47,1.21.98,1.82,2.23,1.82,3.73s-.76,5.52-2.28,12.02l-7.54,31.18c11.7-18.44,24.89-34.22,39.6-47.33,7.06-6.26,12.97-9.4,17.72-9.4,3.47,0,6.37,1.13,8.68,3.38,2.32,2.25,3.48,4.88,3.48,7.89s-1.13,5.78-3.38,7.97c-2.25,2.2-7.88,4.8-16.89,7.8-8.54,2.89-15.5,6.36-20.87,10.41-5.37,4.05-11.26,10.23-17.67,18.55s-10.89,15.58-13.44,21.76-6.43,20.54-11.64,43.07l-7.82,33.62Z"/>
          <path class="cls-3" d="M1759.4,1513.62l-7.63-5.89c11.54-12.71,22.07-21.75,31.6-27.13,9.52-5.37,17.63-8.06,24.32-8.06,3.7,0,6.52.81,8.48,2.43,1.96,1.62,2.94,3.81,2.94,6.59,0,3.35-3.75,17.57-11.24,42.64-12.22,41.02-18.32,65.76-18.32,74.19,0,1.62.4,2.98,1.21,4.07.81,1.1,1.67,1.65,2.6,1.65,3.7,0,13.17-7.16,28.43-21.49l6.76,6.59c-15.83,14.91-27.39,24.44-34.67,28.6s-13.23,6.24-17.85,6.24c-4.05,0-7.25-1.27-9.62-3.81-2.37-2.54-3.55-6.07-3.55-10.57,0-14.44,8.67-49.75,26-105.91.81-2.66,1.21-5.03,1.21-7.11,0-2.31-1.04-3.47-3.12-3.47-2.31,0-4.94.93-7.89,2.77-2.95,1.85-9.51,7.74-19.67,17.68ZM1827.52,1398.87c3.58,0,6.53,1.19,8.84,3.55,2.31,2.37,3.47,5.4,3.47,9.1,0,5.09-1.76,9.56-5.29,13.43-3.53,3.87-7.48,5.81-11.87,5.81-3.47,0-6.36-1.21-8.67-3.64-2.31-2.43-3.47-5.6-3.47-9.53,0-5.2,1.67-9.62,5.03-13.26,3.35-3.64,7.34-5.46,11.96-5.46Z"/>
          <path class="cls-3" d="M1929.79,1575.68l5.72,7.63c-28.31,26.93-52.58,40.39-72.8,40.39-8.21,0-14.47-2.77-18.81-8.32-4.33-5.55-6.5-14.44-6.5-26.69,0-24.73,7.51-49.34,22.54-73.84,16.87-27.85,37.04-41.77,60.5-41.77,8.2,0,14.47,2.05,18.81,6.15,4.33,4.1,6.5,9.74,6.5,16.9s-2.6,14.91-7.8,22.19c-5.2,7.28-14.5,14.85-27.91,22.71-6.7,3.81-21.03,10.69-42.99,20.63-1.04,6.24-1.56,12.19-1.56,17.85,0,8.21,1.3,13.93,3.9,17.16,2.6,3.24,6.38,4.85,11.35,4.85s9.94-1.33,15.6-3.99c7.63-3.58,18.78-10.86,33.46-21.84ZM1869.12,1550.54c18.6-8.32,32.59-17.27,41.95-26.87,6.35-6.7,9.53-13.35,9.53-19.93,0-4.97-1.3-8.93-3.9-11.87-2.6-2.95-5.98-4.42-10.14-4.42s-8.44,1.62-12.48,4.85c-5.43,4.28-10,10.75-13.69,19.41-5.32,12.71-9.07,25.65-11.27,38.83Z"/>
        </g>
        <g>
          <rect class="cls-5" x="461.69" y="10" width="1000" height="1247.06" rx="500" ry="500"/>
          <path class="cls-3" d="M1330,948.6c-3.66-3.79-8.17-5.68-13.5-5.68s-10.13,1.98-14.35,5.97c-3.12,2.89-6.45,10.4-10.02,22.57-6.01,19.24-19.68,28.87-41.04,28.87s-39.93-9.98-57.72-29.93c-24.04-27.27-47.28-74.27-69.74-141.01-9.55-28.49-16.68-48.73-21.34-60.75-2.47-6.07-7.59-16.99-15.37-32.76-1.35-2.73-2.77-5.62-4.3-8.65,12.23-1.98,23.67-4.72,34.32-8.19,25.21-8.22,46.05-20.63,62.54-37.21,23.46-23.59,35.19-49.08,35.19-76.46,0-29.14-12.81-51.17-38.41-66.1-24.6-14.33-55.64-21.76-93.18-22.32l10.34-40.49c17.68-69.22,34.24-124.98,49.69-167.26-27.08,15.14-58.86,44.18-95.34,87.13-38.73,45.72-78.14,100.89-118.28,165.5-13.1,21.11-26.29,43.24-39.56,66.39l-2.33-30.6-17.05-223.65c-.69-7.13-.98-11.69-.89-13.69-.12-1.56.19-12.35.92-32.4-13.14,4.01-30.6,6.01-52.43,6.01-40.5.23-75.85,6.41-105.99,18.53-30.16,12.13-53.76,29.83-70.78,53.1-17.03,23.25-25.54,47.57-25.54,72.94,0,18.03,4.53,33.61,13.6,46.74,6.64,9.78,14.27,14.68,22.9,14.68,5.08,0,9.46-1.89,13.12-5.66,3.64-3.79,5.47-8.57,5.47-14.37,0-5.1-3.2-11.79-9.57-20.03-11.86-15.35-17.8-28.49-17.8-39.39,0-24.71,12.56-47.07,37.71-67.1,31.61-25.15,72.67-37.73,123.21-37.73-3.35,50.92-11.63,103.12-24.88,156.61-13.25,53.49-28.27,95.17-45.07,125.08-16.81,29.91-33.78,50.64-50.9,62.21-11.36,7.78-22.27,11.67-32.72,11.67-6.01,0-13.58-1.17-22.71-3.51-10.01-2.35-17.7-3.51-23.04-3.51-7.34,0-13.41,2.21-18.2,6.66-4.78,4.47-7.16,9.69-7.16,15.7,0,7.13,3.27,13.19,9.84,18.2,6.57,5.01,15.97,7.51,28.22,7.51,20.24,0,40.74-5.8,61.42-17.35,20.7-11.58,40.95-31.66,60.77-60.27,19.8-28.6,37.5-69.11,53.08-121.53,15.58-52.41,26.27-108.88,32.05-169.43l21.57,293.93,4.82,65.68,15.29-26.83,13.85-24.31c24.85-44.82,48.07-84.42,69.7-118.82,5.03-2.99,10.27-5.87,15.74-8.65,19.61-9.94,39.46-16.97,59.61-21.05l-10.11,35.9-44.11,156.45c-.12.31-.23.62-.35.92.04-.02.06-.02.1-.04l-9.25,32.78v.04l-17.2,68.76c-6.01,24.04-14.56,40.83-25.69,50.4-7.34,6.01-23.23,12.13-47.71,18.36l-5.01,18.7c23.34-5.12,43.91-7.68,61.71-7.68,9.78,0,22.11.79,37.02,2.35,16.89,1.54,29.68,2.33,38.37,2.33,8.2,0,19.78-1.56,34.67-4.68l3.33-16.35c-14.43,3.33-26.52,5.01-36.29,5.01-6.45,0-15-.77-25.65-2.33l44.03-173.96.85-3.33c3.74-.44,6.57-.65,8.55-.65l8.2.65c.44,1.16,1.02,2.85,1.73,5.03,2.58,7.9,7.01,22.48,13.27,43.72,13.33,44.51,23.44,75.12,30.32,91.81,13.79,33.3,29.99,61.84,48.56,85.61,18.59,23.77,37.71,40.87,57.42,51.31,19.68,10.42,40.31,15.66,61.9,15.66,23.81,0,43.28-6.24,58.4-18.7,15.14-12.46,22.71-25.6,22.71-39.41,0-5.34-1.85-9.9-5.53-13.67ZM1031.54,521c-20.05,3.54-39.6,9.42-58.67,17.6,2.81-4.2,5.57-8.28,8.3-12.27,37.29-54.14,64.87-91.35,82.72-111.63-8.03,16.49-17.51,46.74-28.45,90.81l-3.91,15.49ZM1056,708.89c-5.59,0-12.13-.64-19.65-1.93l7.03-31.18c3.81-17.12,6.82-30.14,9.07-39.06l24.85-97.19c23.23,1.29,41.93,7.9,56.09,19.78,15.89,13.37,23.84,30.39,23.84,51.08,0,26.71-9.92,49.81-29.74,69.28-19.82,19.49-43.66,29.22-71.49,29.22Z"/>
        </g>
      </g>
    </symbol>
  </defs>
  <g id="Layer_1-2" data-name="Layer 1">
    <g>
      <rect class="cls-4" width="475.5" height="253.5"/>
      <use width="1945.74" height="1672.23" transform="translate(162.8 47.12) scale(.08)" xlink:href="#New_Symbol"/>
      <text class="cls-2" transform="translate(167.3 208.81)"><tspan x="0" y="0">FULL </tspan><tspan class="cls-1" x="27.48" y="0">L</tspan><tspan x="32.68" y="0">OGO - LIGHT ON </tspan><tspan class="cls-6" x="117.06" y="0">D</tspan><tspan x="124.88" y="0">ARK</tspan></text>
    </g>
  </g>
</svg>