<?xml version="1.0" encoding="UTF-8"?>
<svg id="Layer_2" data-name="Layer 2" xmlns="http://www.w3.org/2000/svg" viewBox="0 0 475.5 253.5">
  <defs>
    <style>
      .cls-1 {
        letter-spacing: 0em;
      }

      .cls-2 {
        font-family: MyriadPro-Regular, 'Myriad Pro';
        font-size: 12px;
      }

      .cls-2, .cls-3 {
        fill: #741c28;
      }

      .cls-4 {
        letter-spacing: -.08em;
      }

      .cls-5 {
        letter-spacing: -.01em;
      }

      .cls-6 {
        fill: #f3e0d1;
      }

      .cls-7 {
        letter-spacing: -.01em;
      }
    </style>
  </defs>
  <g id="Layer_1-2" data-name="Layer 1">
    <g>
      <rect class="cls-6" width="475.5" height="253.5"/>
      <text class="cls-2" transform="translate(165.45 208.68)"><tspan class="cls-7" x="0" y="0">M</tspan><tspan x="9.53" y="0">ARK ON</tspan><tspan class="cls-4" x="48.54" y="0">L</tspan><tspan x="53.2" y="0">Y - </tspan><tspan class="cls-5" x="68.46" y="0">D</tspan><tspan class="cls-1" x="76.28" y="0">ARK ON LIGHT</tspan></text>
      <path class="cls-3" d="M305.51,145.8c-.63-.65-1.4-.97-2.31-.97s-1.73.34-2.45,1.02c-.53.49-1.1,1.78-1.71,3.86-1.03,3.29-3.37,4.94-7.02,4.94s-6.83-1.71-9.87-5.12c-4.11-4.66-8.09-12.7-11.93-24.11-1.63-4.87-2.85-8.33-3.65-10.39-.42-1.04-1.3-2.91-2.63-5.6-.23-.47-.47-.96-.73-1.48,2.09-.34,4.05-.81,5.87-1.4,4.31-1.41,7.88-3.53,10.7-6.36,4.01-4.03,6.02-8.39,6.02-13.08,0-4.98-2.19-8.75-6.57-11.3-4.21-2.45-9.52-3.72-15.94-3.82l1.77-6.92c3.02-11.84,5.86-21.37,8.5-28.6-4.63,2.59-10.07,7.56-16.3,14.9-6.62,7.82-13.36,17.25-20.23,28.3-2.24,3.61-4.5,7.39-6.77,11.35l-.4-5.23-2.92-38.25c-.12-1.22-.17-2-.15-2.34-.02-.27.03-2.11.16-5.54-2.25.69-5.23,1.03-8.97,1.03-6.93.04-12.97,1.1-18.13,3.17-5.16,2.08-9.19,5.1-12.1,9.08-2.91,3.98-4.37,8.14-4.37,12.47,0,3.08.77,5.75,2.33,7.99,1.14,1.67,2.44,2.51,3.92,2.51.87,0,1.62-.32,2.24-.97.62-.65.94-1.47.94-2.46,0-.87-.55-2.02-1.64-3.43-2.03-2.63-3.04-4.87-3.04-6.74,0-4.23,2.15-8.05,6.45-11.48,5.41-4.3,12.43-6.45,21.07-6.45-.57,8.71-1.99,17.64-4.26,26.78-2.27,9.15-4.84,16.27-7.71,21.39-2.88,5.12-5.78,8.66-8.71,10.64-1.94,1.33-3.81,2-5.6,2-1.03,0-2.32-.2-3.88-.6-1.71-.4-3.03-.6-3.94-.6-1.25,0-2.29.38-3.11,1.14-.82.76-1.23,1.66-1.23,2.68,0,1.22.56,2.26,1.68,3.11,1.12.86,2.73,1.28,4.83,1.28,3.46,0,6.97-.99,10.5-2.97,3.54-1.98,7-5.42,10.39-10.31,3.39-4.89,6.41-11.82,9.08-20.78,2.66-8.96,4.49-18.62,5.48-28.98l3.69,50.27.82,11.23,2.62-4.59,2.37-4.16c4.25-7.66,8.22-14.44,11.92-20.32.86-.51,1.76-1,2.69-1.48,3.35-1.7,6.75-2.9,10.19-3.6l-1.73,6.14-7.54,26.76c-.02.05-.04.11-.06.16,0,0,0,0,.02,0l-1.58,5.61h0s-2.94,11.77-2.94,11.77c-1.03,4.11-2.49,6.98-4.39,8.62-1.25,1.03-3.97,2.08-8.16,3.14l-.86,3.2c3.99-.88,7.51-1.31,10.55-1.31,1.67,0,3.78.14,6.33.4,2.89.26,5.08.4,6.56.4,1.4,0,3.38-.27,5.93-.8l.57-2.8c-2.47.57-4.54.86-6.21.86-1.1,0-2.57-.13-4.39-.4l7.53-29.75.14-.57c.64-.08,1.12-.11,1.46-.11l1.4.11c.08.2.17.49.3.86.44,1.35,1.2,3.84,2.27,7.48,2.28,7.61,4.01,12.85,5.18,15.7,2.36,5.7,5.13,10.58,8.3,14.64,3.18,4.06,6.45,6.99,9.82,8.77,3.37,1.78,6.89,2.68,10.59,2.68,4.07,0,7.4-1.07,9.99-3.2,2.59-2.13,3.88-4.38,3.88-6.74,0-.91-.32-1.69-.95-2.34ZM254.47,72.68c-3.43.61-6.77,1.61-10.03,3.01.48-.72.95-1.42,1.42-2.1,6.38-9.26,11.09-15.62,14.15-19.09-1.37,2.82-2.99,7.99-4.87,15.53l-.67,2.65ZM258.65,104.81c-.96,0-2.08-.11-3.36-.33l1.2-5.33c.65-2.93,1.17-5.15,1.55-6.68l4.25-16.62c3.97.22,7.17,1.35,9.59,3.38,2.72,2.29,4.08,5.2,4.08,8.74,0,4.57-1.7,8.52-5.09,11.85-3.39,3.33-7.47,5-12.23,5Z"/>
    </g>
  </g>
</svg>