<?xml version="1.0" encoding="UTF-8"?>
<svg id="Layer_2" data-name="Layer 2" xmlns="http://www.w3.org/2000/svg" xmlns:xlink="http://www.w3.org/1999/xlink" viewBox="0 0 475.5 253.5">
  <defs>
    <style>
      .cls-1 {
        letter-spacing: 0em;
      }

      .cls-2, .cls-3 {
        fill: #fff;
      }

      .cls-2, .cls-4 {
        stroke: #fff;
        stroke-miterlimit: 10;
      }

      .cls-5 {
        letter-spacing: -.08em;
      }

      .cls-6 {
        fill: #be6674;
      }

      .cls-7 {
        letter-spacing: -.01em;
      }

      .cls-3 {
        font-family: MyriadPro-Regular, 'Myriad Pro';
        font-size: 12px;
      }

      .cls-8 {
        letter-spacing: -.01em;
      }

      .cls-4 {
        fill: none;
        stroke-width: 20px;
      }
    </style>
    <symbol id="New_Symbol_1" data-name="New Symbol 1" viewBox="0 0 1020 1267.06">
      <g>
        <rect class="cls-4" x="10" y="10" width="1000" height="1247.06" rx="500" ry="500"/>
        <path class="cls-2" d="M878.31,948.6c-3.66-3.79-8.17-5.68-13.5-5.68s-10.13,1.98-14.35,5.97c-3.12,2.89-6.45,10.4-10.02,22.57-6.01,19.24-19.68,28.87-41.04,28.87s-39.93-9.98-57.72-29.93c-24.04-27.27-47.28-74.27-69.74-141.01-9.55-28.49-16.68-48.73-21.34-60.75-2.47-6.07-7.59-16.99-15.37-32.76-1.35-2.73-2.77-5.62-4.3-8.65,12.23-1.98,23.67-4.72,34.32-8.19,25.21-8.22,46.05-20.63,62.54-37.21,23.46-23.59,35.19-49.08,35.19-76.46,0-29.14-12.81-51.17-38.41-66.1-24.6-14.33-55.64-21.76-93.18-22.32l10.34-40.49c17.68-69.22,34.24-124.98,49.69-167.26-27.08,15.14-58.86,44.18-95.34,87.13-38.73,45.72-78.14,100.89-118.28,165.5-13.1,21.11-26.29,43.24-39.56,66.39l-2.33-30.6-17.05-223.65c-.69-7.13-.98-11.69-.89-13.69-.12-1.56.19-12.35.92-32.4-13.14,4.01-30.6,6.01-52.43,6.01-40.5.23-75.85,6.41-105.99,18.53-30.16,12.13-53.76,29.83-70.78,53.1-17.03,23.25-25.54,47.57-25.54,72.94,0,18.03,4.53,33.61,13.6,46.74,6.64,9.78,14.27,14.68,22.9,14.68,5.08,0,9.46-1.89,13.12-5.66,3.64-3.79,5.47-8.57,5.47-14.37,0-5.1-3.2-11.79-9.57-20.03-11.86-15.35-17.8-28.49-17.8-39.39,0-24.71,12.56-47.07,37.71-67.1,31.61-25.15,72.67-37.73,123.21-37.73-3.35,50.92-11.63,103.12-24.88,156.61-13.25,53.49-28.27,95.17-45.07,125.08-16.81,29.91-33.78,50.64-50.9,62.21-11.36,7.78-22.27,11.67-32.72,11.67-6.01,0-13.58-1.17-22.71-3.51-10.01-2.35-17.7-3.51-23.04-3.51-7.34,0-13.41,2.21-18.2,6.66-4.78,4.47-7.16,9.69-7.16,15.7,0,7.13,3.27,13.19,9.84,18.2,6.57,5.01,15.97,7.51,28.22,7.51,20.24,0,40.74-5.8,61.42-17.35,20.7-11.58,40.95-31.66,60.77-60.27,19.8-28.6,37.5-69.11,53.08-121.53,15.58-52.41,26.27-108.88,32.05-169.43l21.57,293.93,4.82,65.68,15.29-26.83,13.85-24.31c24.85-44.82,48.07-84.42,69.7-118.82,5.03-2.99,10.27-5.87,15.74-8.65,19.61-9.94,39.46-16.97,59.61-21.05l-10.11,35.9-44.11,156.45c-.12.31-.23.62-.35.92.04-.02.06-.02.1-.04l-9.25,32.78v.04l-17.2,68.76c-6.01,24.04-14.56,40.83-25.69,50.4-7.34,6.01-23.23,12.13-47.71,18.36l-5.01,18.7c23.34-5.12,43.91-7.68,61.71-7.68,9.78,0,22.11.79,37.02,2.35,16.89,1.54,29.68,2.33,38.37,2.33,8.2,0,19.78-1.56,34.67-4.68l3.33-16.35c-14.43,3.33-26.52,5.01-36.29,5.01-6.45,0-15-.77-25.65-2.33l44.03-173.96.85-3.33c3.74-.44,6.57-.65,8.55-.65l8.2.65c.44,1.16,1.02,2.85,1.73,5.03,2.58,7.9,7.01,22.48,13.27,43.72,13.33,44.51,23.44,75.12,30.32,91.81,13.79,33.3,29.99,61.84,48.56,85.61,18.59,23.77,37.71,40.87,57.42,51.31,19.68,10.42,40.31,15.66,61.9,15.66,23.81,0,43.28-6.24,58.4-18.7,15.14-12.46,22.71-25.6,22.71-39.41,0-5.34-1.85-9.9-5.53-13.67ZM579.85,521c-20.05,3.54-39.6,9.42-58.67,17.6,2.81-4.2,5.57-8.28,8.3-12.27,37.29-54.14,64.87-91.35,82.72-111.63-8.03,16.49-17.51,46.74-28.45,90.81l-3.91,15.49ZM604.31,708.89c-5.59,0-12.13-.64-19.65-1.93l7.03-31.18c3.81-17.12,6.82-30.14,9.07-39.06l24.85-97.19c23.23,1.29,41.93,7.9,56.09,19.78,15.89,13.37,23.84,30.39,23.84,51.08,0,26.71-9.92,49.81-29.74,69.28-19.82,19.49-43.66,29.22-71.49,29.22Z"/>
      </g>
    </symbol>
  </defs>
  <g id="Layer_1-2" data-name="Layer 1">
    <g>
      <rect class="cls-6" width="475.5" height="253.5"/>
      <text class="cls-3" transform="translate(165.53 208.81)"><tspan class="cls-8" x="0" y="0">M</tspan><tspan x="9.53" y="0">ARK ON</tspan><tspan class="cls-5" x="48.54" y="0">L</tspan><tspan x="53.2" y="0">Y - </tspan><tspan class="cls-7" x="68.46" y="0">D</tspan><tspan class="cls-1" x="76.28" y="0">ARK ON LIGHT</tspan></text>
      <use width="1020" height="1267.06" transform="translate(179.42 21.86) scale(.12)" xlink:href="#New_Symbol_1"/>
    </g>
  </g>
</svg>