<?xml version="1.0" encoding="UTF-8"?>
<svg id="Layer_2" data-name="Layer 2" xmlns="http://www.w3.org/2000/svg" viewBox="0 0 475.5 253.5">
  <defs>
    <style>
      .cls-1 {
        letter-spacing: 0em;
      }

      .cls-2 {
        font-family: MyriadPro-Regular, 'Myriad Pro';
        font-size: 12px;
      }

      .cls-2, .cls-3 {
        fill: #741c28;
      }

      .cls-4 {
        letter-spacing: -.08em;
      }

      .cls-5 {
        letter-spacing: -.01em;
      }

      .cls-6 {
        fill: #bb8c94;
      }

      .cls-7 {
        letter-spacing: -.01em;
      }
    </style>
  </defs>
  <g id="Layer_1-2" data-name="Layer 1">
    <rect class="cls-6" width="475.5" height="253.5"/>
    <text class="cls-2" transform="translate(165.83 208.81)"><tspan class="cls-7" x="0" y="0">M</tspan><tspan x="9.53" y="0">ARK ON</tspan><tspan class="cls-4" x="48.54" y="0">L</tspan><tspan x="53.2" y="0">Y - </tspan><tspan class="cls-5" x="68.46" y="0">D</tspan><tspan class="cls-1" x="76.28" y="0">ARK ON LIGHT</tspan></text>
    <g>
      <path class="cls-3" d="M109.51,140.8l-2.11-28.79c-.46,4.85-1.32,9.37-2.57,13.56-1.25,4.2-2.66,7.44-4.25,9.73-1.59,2.29-3.21,3.9-4.86,4.82s-3.3,1.39-4.92,1.39c-.98,0-1.73-.2-2.26-.6-.53-.4-.79-.89-.79-1.46,0-.48.19-.9.57-1.26.38-.36.87-.53,1.46-.53.43,0,1.04.09,1.84.28.73.19,1.34.28,1.82.28.84,0,1.71-.31,2.62-.93,1.37-.93,2.73-2.59,4.08-4.98,1.35-2.39,2.55-5.73,3.61-10.01,1.06-4.28,1.72-8.46,1.99-12.54-4.04,0-7.33,1.01-9.86,3.02-2.01,1.6-3.02,3.39-3.02,5.37,0,.87.48,1.92,1.43,3.15.51.66.77,1.19.77,1.6,0,.46-.15.85-.44,1.15-.29.3-.64.45-1.05.45-.69,0-1.3-.39-1.83-1.18-.73-1.05-1.09-2.3-1.09-3.74,0-2.03.68-3.98,2.04-5.84,1.36-1.86,3.25-3.28,5.67-4.25,2.41-.97,5.24-1.47,8.49-1.48,1.75,0,3.14-.16,4.2-.48-.06,1.6-.08,2.47-.07,2.59,0,.16.02.53.07,1.1l1.55,20.35c4.31-7.52,8.52-13.71,12.64-18.56,2.92-3.44,5.46-5.76,7.63-6.98-1.24,3.39-2.56,7.85-3.98,13.39l-3.28,12.83c-.18.71-.42,1.76-.73,3.13l-.65,2.86c1.35.32,2.59.48,3.72.48.91,0,1.88-.11,2.91-.32l-.35,1.55c-.91.16-1.61.24-2.11.24-.73,0-1.78-.08-3.16-.24-1.12-.14-2.12-.21-3-.21-.93,0-1.98.18-3.16.53.98-2.57,2.01-6.01,3.08-10.34l2.06-8.18c.87-3.53,1.63-5.95,2.28-7.27-1.43,1.62-3.64,4.6-6.62,8.94-2.4,3.5-5.08,7.92-8.04,13.27l-2.33,4.09Z"/>
      <path class="cls-3" d="M153.15,116.71l1.76-.37-2,6.76c-.8,2.69-1.56,5.79-2.27,9.3-.39,1.91-.59,3.14-.59,3.69s.22.83.67.83c.28,0,.74-.19,1.36-.56,1.1-.66,2.16-1.48,3.18-2.46l.86,1.04c-2.03,1.85-3.33,2.98-3.9,3.37-1.14.78-2.23,1.36-3.26,1.74-.68.25-1.34.37-1.98.37-.46,0-.81-.11-1.04-.32-.23-.21-.35-.53-.35-.94,0-.27.07-.63.21-1.1l1.07-3.63c-1.53,1.84-3.36,3.41-5.48,4.73-1.3.82-2.49,1.23-3.58,1.23s-1.83-.37-2.38-1.1c-.75-.98-1.12-2.26-1.12-3.85,0-1.89.5-3.99,1.51-6.31,1.01-2.32,2.36-4.42,4.05-6.31,1.69-1.89,3.47-3.28,5.35-4.17,1.44-.68,3.3-1.02,5.56-1.02.57,0,1.15.04,1.74.11l.64-1.04ZM149.83,120.8c-.96-.2-1.77-.29-2.43-.29-1.6,0-3,.44-4.2,1.32-1.19.88-2.3,2.47-3.33,4.76-1.02,2.29-1.54,4.57-1.54,6.86,0,1.21.2,2.08.61,2.62.41.53.94.8,1.6.8,1.23,0,2.55-.66,3.96-1.99,1.41-1.33,2.44-3.24,3.1-5.73l2.22-8.34Z"/>
      <path class="cls-3" d="M158.76,123.37l-1.18-.91c1.78-1.96,3.4-3.35,4.87-4.18,1.47-.83,2.72-1.24,3.75-1.24.57,0,1.01.12,1.31.37.3.25.45.59.45,1.02,0,.52-.58,2.71-1.73,6.57-1.88,6.33-2.82,10.14-2.82,11.44,0,.25.06.46.19.63.12.17.26.25.4.25.57,0,2.03-1.1,4.38-3.31l1.04,1.02c-2.44,2.3-4.22,3.77-5.35,4.41s-2.04.96-2.75.96c-.62,0-1.12-.2-1.48-.59-.37-.39-.55-.94-.55-1.63,0-2.23,1.34-7.67,4.01-16.33.12-.41.19-.77.19-1.1,0-.36-.16-.53-.48-.53-.36,0-.76.14-1.22.43-.45.29-1.47,1.19-3.03,2.73ZM169.26,105.68c.55,0,1.01.18,1.36.55.36.37.53.83.53,1.4,0,.78-.27,1.47-.82,2.07-.54.6-1.15.9-1.83.9-.53,0-.98-.19-1.34-.56-.36-.37-.53-.86-.53-1.47,0-.8.26-1.48.78-2.04.52-.56,1.13-.84,1.84-.84Z"/>
      <path class="cls-3" d="M182.76,117.17c1.59,0,2.81.31,3.67.92.86.61,1.3,1.32,1.3,2.12,0,.48-.18.9-.55,1.26-.37.36-.81.53-1.32.53-.34,0-.63-.08-.88-.23-.25-.15-.61-.53-1.07-1.14-.87-1.16-1.74-1.74-2.59-1.74-.73,0-1.38.28-1.94.84-.56.56-.84,1.26-.84,2.1,0,.73.18,1.44.53,2.12.36.69,1.26,1.79,2.7,3.32,1.98,2.1,2.97,4.09,2.97,5.98s-.8,3.54-2.41,4.95c-1.6,1.41-3.67,2.12-6.2,2.12-2.12,0-3.7-.43-4.73-1.3-1.03-.86-1.55-1.93-1.55-3.19,0-.62.2-1.14.59-1.55.39-.41.87-.61,1.44-.61.5,0,.93.16,1.28.49.36.33.53.72.53,1.16,0,.18-.01.41-.04.7-.01.23-.02.43-.02.59,0,.59.25,1.09.75,1.5.48.41,1.14.61,1.97.61.96,0,1.8-.16,2.53-.49.73-.33,1.3-.83,1.7-1.5.41-.67.61-1.33.61-1.99s-.19-1.28-.57-1.92c-.38-.64-1.24-1.7-2.58-3.18-1.85-2.06-2.78-4.05-2.78-5.95,0-1.74.7-3.27,2.11-4.58,1.41-1.31,3.2-1.96,5.37-1.96Z"/>
      <path class="cls-3" d="M201.79,117.17c1.75,0,3.2.7,4.36,2.08,1.16,1.39,1.74,3.32,1.74,5.8,0,3.96-1.39,7.51-4.17,10.65-2.78,3.14-5.72,4.72-8.82,4.72-1.91,0-3.44-.62-4.61-1.87-1.17-1.25-1.75-2.95-1.75-5.1,0-3.74,1.07-7.2,3.21-10.37,2.69-3.94,6.04-5.91,10.05-5.91ZM199.52,119.17c-1.51,0-2.98,1.08-4.4,3.25-1.42,2.16-2.12,5.15-2.12,8.97,0,2.32.44,4.14,1.31,5.48.64.98,1.5,1.47,2.57,1.47,1.5,0,2.86-.93,4.09-2.78,1.57-2.41,2.35-5.39,2.35-8.95,0-2.67-.36-4.58-1.08-5.72-.72-1.14-1.63-1.71-2.71-1.71Z"/>
      <path class="cls-3" d="M211.22,123.45l-.91-.94c2.28-2.18,4.1-3.63,5.46-4.35,1.36-.72,2.51-1.07,3.48-1.07.37,0,.67.08.88.24.21.16.32.35.32.56,0,.16-.04.45-.13.86l-1.2,5.38c1.81-2.02,4.09-3.9,6.83-5.64,1.46-.91,2.66-1.36,3.6-1.36.69,0,1.24.22,1.63.67.39.45.59,1.09.59,1.92,0,.55-.08,1.18-.24,1.87-.28,1.16-1.03,3.68-2.24,7.56-1.14,3.63-1.7,6.05-1.7,7.24,0,.37.05.64.16.82.11.18.26.27.45.27.52,0,1.33-.5,2.43-1.5.78-.71,1.57-1.37,2.35-1.98l.67.96c-1.64,1.81-3.34,3.26-5.1,4.36-1.12.71-2.05,1.06-2.78,1.06-.68,0-1.2-.25-1.58-.73s-.56-1.29-.56-2.39c0-1.59.99-5.53,2.97-11.84.61-2.24.91-3.55.91-3.93,0-.55-.33-.83-.99-.83-.71,0-1.63.38-2.75,1.12-1.67,1.11-3.07,2.41-4.2,3.91-.71.96-1.31,2.5-1.79,4.6l-2.16,9.34h-3.98c.75-2.68,1.4-5.24,1.95-7.68l2.38-10.17c.09-.41.13-.7.13-.88,0-.48-.18-.72-.53-.72-.29,0-.69.19-1.23.57-1.1.74-2.14,1.63-3.1,2.69Z"/>
      <path class="cls-3" d="M262.71,124.36l-3.59,14.19c.85.12,1.54.19,2.05.19.78,0,1.75-.13,2.91-.4l-.27,1.31c-1.19.25-2.12.37-2.78.37-.69,0-1.72-.06-3.07-.19-1.19-.12-2.18-.19-2.96-.19-1.42,0-3.07.2-4.94.61l.4-1.5c1.96-.5,3.23-.99,3.82-1.47.89-.77,1.58-2.11,2.06-4.04l3.74-14.94c.46-1.91.69-3.03.69-3.37,0-.32-.11-.56-.33-.72-.22-.16-.66-.23-1.32-.21l.35-1.28c1.79-.02,3.94-.35,6.44-.99-.21.68-.49,1.67-.83,2.99l-2.01,7.88c.86.18,1.58.27,2.17.27,2.23,0,4.14-.78,5.72-2.34,1.59-1.56,2.38-3.41,2.38-5.55,0-1.66-.64-3.02-1.91-4.09-1.27-1.07-3-1.6-5.19-1.6-2.79,0-5.53.68-8.2,2.03-2.67,1.35-4.67,3.03-6.01,5.04-1.33,2-2,4.1-2,6.29,0,1.66.69,3.08,2.06,4.28.69.59,1.12,1.02,1.28,1.28.16.27.24.55.24.86,0,.37-.14.7-.42.98-.28.28-.61.41-1.01.41-.97,0-1.83-.56-2.58-1.68-.97-1.46-1.45-3.26-1.45-5.4,0-2.74.76-5.3,2.27-7.67,1.51-2.37,3.81-4.33,6.88-5.88,3.07-1.55,6.31-2.33,9.71-2.33,3.17,0,5.78.6,7.83,1.79,2.05,1.19,3.07,2.96,3.07,5.29,0,2.19-.94,4.23-2.82,6.12-1.88,1.89-4.46,3.1-7.75,3.63.82,1.64,1.34,2.74,1.57,3.31.37.96.94,2.58,1.71,4.86,1.8,5.34,3.66,9.1,5.58,11.29,1.42,1.6,2.97,2.4,4.62,2.4s2.8-.77,3.29-2.31c.28-.97.55-1.58.8-1.81.34-.32.72-.48,1.15-.48s.79.15,1.08.45c.29.3.44.67.44,1.1,0,1.1-.61,2.16-1.82,3.15-1.21,1-2.77,1.5-4.67,1.5-1.73,0-3.38-.42-4.96-1.25-1.58-.84-3.11-2.2-4.6-4.11-1.49-1.9-2.78-4.19-3.89-6.85-.55-1.34-1.36-3.79-2.43-7.35-.64-2.17-1.04-3.47-1.2-3.9l-.66-.05c-.16,0-.39.02-.68.05Z"/>
      <path class="cls-3" d="M294.48,132.94l.88,1.18c-4.37,4.15-8.11,6.23-11.22,6.23-1.27,0-2.23-.43-2.9-1.28-.67-.86-1-2.23-1-4.12,0-3.81,1.16-7.61,3.47-11.39,2.6-4.29,5.71-6.44,9.33-6.44,1.26,0,2.23.32,2.9.95.67.63,1,1.5,1,2.61s-.4,2.3-1.2,3.42c-.8,1.12-2.24,2.29-4.3,3.5-1.03.59-3.24,1.65-6.63,3.18-.16.96-.24,1.88-.24,2.75,0,1.27.2,2.15.6,2.65.4.5.98.75,1.75.75s1.53-.2,2.41-.61c1.18-.55,2.9-1.67,5.16-3.37ZM285.12,129.06c2.87-1.28,5.02-2.66,6.47-4.14.98-1.03,1.47-2.06,1.47-3.07,0-.77-.2-1.38-.6-1.83-.4-.45-.92-.68-1.56-.68s-1.3.25-1.92.75c-.84.66-1.54,1.66-2.11,2.99-.82,1.96-1.4,3.96-1.74,5.99Z"/>
      <path class="cls-3" d="M311.39,119.71c-1.37,2.19-2.32,4.12-2.85,5.8-.53,1.68-.79,3.34-.79,5,0,1.53.34,3.93,1.02,7.19,3.94-2.99,6.73-5.79,8.37-8.41,1.64-2.61,2.46-4.86,2.46-6.75,0-.55-.21-1.25-.61-2.08-.45-.89-.67-1.55-.67-1.98,0-.46.16-.87.48-1.22.32-.35.7-.52,1.15-.52.59,0,1.06.25,1.42.76.36.51.53,1.37.53,2.58,0,3.8-1.35,7.49-4.04,11.09-3.3,4.42-7.47,7.82-12.53,10.21-.12-.84-.37-2.17-.75-4.01-.73-3.69-1.1-6.25-1.1-7.7,0-1.91.45-3.75,1.34-5.55.89-1.79,2.21-3.34,3.96-4.66-3.14.05-5.38.4-6.73,1.04-.96.46-1.44,1.01-1.44,1.63,0,.25.12.67.37,1.26.16.41.24.76.24,1.04s-.12.54-.36.76c-.24.22-.54.33-.9.33-.46,0-.86-.2-1.18-.59-.32-.39-.48-.92-.48-1.58,0-1.05.35-2,1.04-2.85.69-.85,1.9-1.51,3.61-1.99s3.97-.7,6.79-.67c1.14-.5,1.86-.75,2.16-.75.28,0,.54.12.77.35.23.23.35.48.35.75,0,.55-.54,1.05-1.63,1.5Z"/>
      <path class="cls-3" d="M337.16,132.94l.88,1.18c-4.37,4.15-8.11,6.23-11.22,6.23-1.27,0-2.23-.43-2.9-1.28-.67-.86-1-2.23-1-4.12,0-3.81,1.16-7.61,3.47-11.39,2.6-4.29,5.71-6.44,9.33-6.44,1.26,0,2.23.32,2.9.95.67.63,1,1.5,1,2.61s-.4,2.3-1.2,3.42-2.24,2.29-4.3,3.5c-1.03.59-3.24,1.65-6.63,3.18-.16.96-.24,1.88-.24,2.75,0,1.27.2,2.15.6,2.65.4.5.98.75,1.75.75s1.53-.2,2.41-.61c1.18-.55,2.9-1.67,5.16-3.37ZM327.8,129.06c2.87-1.28,5.02-2.66,6.47-4.14.98-1.03,1.47-2.06,1.47-3.07,0-.77-.2-1.38-.6-1.83-.4-.45-.92-.68-1.56-.68s-1.3.25-1.92.75c-.84.66-1.54,1.66-2.11,2.99-.82,1.96-1.4,3.96-1.74,5.99Z"/>
      <path class="cls-3" d="M346.7,139.65h-3.98l1.87-7.19c.91-3.53,1.7-6.88,2.38-10.05.16-.78.24-1.27.24-1.47,0-.43-.2-.64-.59-.64-.27,0-.68.18-1.23.55-.55.37-1.55,1.27-2.99,2.71l-.83-.94c1.71-1.83,3.42-3.21,5.12-4.13,1.7-.92,3.01-1.38,3.91-1.38.32,0,.57.08.76.23.19.15.28.34.28.57s-.12.85-.35,1.85l-1.16,4.81c1.8-2.84,3.84-5.28,6.11-7.3,1.09-.97,2-1.45,2.73-1.45.54,0,.98.17,1.34.52.36.35.54.75.54,1.22s-.17.89-.52,1.23c-.35.34-1.22.74-2.6,1.2-1.32.45-2.39.98-3.22,1.6-.83.62-1.74,1.58-2.72,2.86s-1.68,2.4-2.07,3.35-.99,3.17-1.79,6.64l-1.21,5.18Z"/>
      <path class="cls-3" d="M359.02,123.37l-1.18-.91c1.78-1.96,3.4-3.35,4.87-4.18,1.47-.83,2.72-1.24,3.75-1.24.57,0,1.01.12,1.31.37.3.25.45.59.45,1.02,0,.52-.58,2.71-1.73,6.57-1.88,6.33-2.83,10.14-2.83,11.44,0,.25.06.46.19.63.12.17.26.25.4.25.57,0,2.03-1.1,4.38-3.31l1.04,1.02c-2.44,2.3-4.22,3.77-5.35,4.41s-2.04.96-2.75.96c-.62,0-1.12-.2-1.48-.59-.37-.39-.55-.94-.55-1.63,0-2.23,1.34-7.67,4.01-16.33.12-.41.19-.77.19-1.1,0-.36-.16-.53-.48-.53-.36,0-.76.14-1.22.43-.45.29-1.47,1.19-3.03,2.73ZM369.52,105.68c.55,0,1.01.18,1.36.55.36.37.53.83.53,1.4,0,.78-.27,1.47-.82,2.07-.54.6-1.15.9-1.83.9-.53,0-.98-.19-1.34-.56-.36-.37-.53-.86-.53-1.47,0-.8.26-1.48.78-2.04.52-.56,1.13-.84,1.84-.84Z"/>
      <path class="cls-3" d="M385.29,132.94l.88,1.18c-4.37,4.15-8.11,6.23-11.22,6.23-1.27,0-2.23-.43-2.9-1.28-.67-.86-1-2.23-1-4.12,0-3.81,1.16-7.61,3.47-11.39,2.6-4.29,5.71-6.44,9.33-6.44,1.26,0,2.23.32,2.9.95.67.63,1,1.5,1,2.61s-.4,2.3-1.2,3.42c-.8,1.12-2.24,2.29-4.3,3.5-1.03.59-3.24,1.65-6.63,3.18-.16.96-.24,1.88-.24,2.75,0,1.27.2,2.15.6,2.65.4.5.98.75,1.75.75s1.53-.2,2.41-.61c1.18-.55,2.9-1.67,5.16-3.37ZM375.94,129.06c2.87-1.28,5.02-2.66,6.47-4.14.98-1.03,1.47-2.06,1.47-3.07,0-.77-.2-1.38-.6-1.83-.4-.45-.92-.68-1.56-.68s-1.3.25-1.92.75c-.84.66-1.54,1.66-2.11,2.99-.82,1.96-1.4,3.96-1.74,5.99Z"/>
    </g>
  </g>
</svg>